G04 #@! TF.GenerationSoftware,KiCad,Pcbnew,9.0.1*
G04 #@! TF.CreationDate,2025-05-19T19:41:34+12:00*
G04 #@! TF.ProjectId,breadbat,62726561-6462-4617-942e-6b696361645f,v1.0.1*
G04 #@! TF.SameCoordinates,Original*
G04 #@! TF.FileFunction,Soldermask,Top*
G04 #@! TF.FilePolarity,Negative*
%FSLAX46Y46*%
G04 Gerber Fmt 4.6, Leading zero omitted, Abs format (unit mm)*
G04 Created by KiCad (PCBNEW 9.0.1) date 2025-05-19 19:41:34*
%MOMM*%
%LPD*%
G01*
G04 APERTURE LIST*
G04 Aperture macros list*
%AMRoundRect*
0 Rectangle with rounded corners*
0 $1 Rounding radius*
0 $2 $3 $4 $5 $6 $7 $8 $9 X,Y pos of 4 corners*
0 Add a 4 corners polygon primitive as box body*
4,1,4,$2,$3,$4,$5,$6,$7,$8,$9,$2,$3,0*
0 Add four circle primitives for the rounded corners*
1,1,$1+$1,$2,$3*
1,1,$1+$1,$4,$5*
1,1,$1+$1,$6,$7*
1,1,$1+$1,$8,$9*
0 Add four rect primitives between the rounded corners*
20,1,$1+$1,$2,$3,$4,$5,0*
20,1,$1+$1,$4,$5,$6,$7,0*
20,1,$1+$1,$6,$7,$8,$9,0*
20,1,$1+$1,$8,$9,$2,$3,0*%
G04 Aperture macros list end*
%ADD10RoundRect,0.225000X-0.250000X0.225000X-0.250000X-0.225000X0.250000X-0.225000X0.250000X0.225000X0*%
%ADD11C,1.500000*%
%ADD12RoundRect,0.375000X0.375000X-0.625000X0.375000X0.625000X-0.375000X0.625000X-0.375000X-0.625000X0*%
%ADD13RoundRect,0.500000X1.400000X-0.500000X1.400000X0.500000X-1.400000X0.500000X-1.400000X-0.500000X0*%
%ADD14RoundRect,0.200000X-0.275000X0.200000X-0.275000X-0.200000X0.275000X-0.200000X0.275000X0.200000X0*%
%ADD15RoundRect,0.150000X0.825000X0.150000X-0.825000X0.150000X-0.825000X-0.150000X0.825000X-0.150000X0*%
%ADD16R,2.410000X3.300000*%
%ADD17RoundRect,0.250000X0.250000X0.475000X-0.250000X0.475000X-0.250000X-0.475000X0.250000X-0.475000X0*%
%ADD18RoundRect,0.200000X0.200000X0.275000X-0.200000X0.275000X-0.200000X-0.275000X0.200000X-0.275000X0*%
%ADD19O,1.200000X1.750000*%
%ADD20RoundRect,0.250000X-0.350000X-0.625000X0.350000X-0.625000X0.350000X0.625000X-0.350000X0.625000X0*%
%ADD21RoundRect,0.250000X0.250000X0.250000X-0.250000X0.250000X-0.250000X-0.250000X0.250000X-0.250000X0*%
%ADD22RoundRect,0.218750X0.256250X-0.218750X0.256250X0.218750X-0.256250X0.218750X-0.256250X-0.218750X0*%
%ADD23RoundRect,0.250000X-0.250000X-0.250000X0.250000X-0.250000X0.250000X0.250000X-0.250000X0.250000X0*%
%ADD24RoundRect,0.218750X-0.256250X0.218750X-0.256250X-0.218750X0.256250X-0.218750X0.256250X0.218750X0*%
%ADD25RoundRect,0.200000X0.275000X-0.200000X0.275000X0.200000X-0.275000X0.200000X-0.275000X-0.200000X0*%
%ADD26RoundRect,0.225000X0.250000X-0.225000X0.250000X0.225000X-0.250000X0.225000X-0.250000X-0.225000X0*%
%ADD27RoundRect,0.225000X0.225000X0.250000X-0.225000X0.250000X-0.225000X-0.250000X0.225000X-0.250000X0*%
%ADD28RoundRect,0.250000X-0.475000X0.250000X-0.475000X-0.250000X0.475000X-0.250000X0.475000X0.250000X0*%
%ADD29RoundRect,0.175000X0.175000X0.625000X-0.175000X0.625000X-0.175000X-0.625000X0.175000X-0.625000X0*%
%ADD30RoundRect,0.200000X0.200000X0.600000X-0.200000X0.600000X-0.200000X-0.600000X0.200000X-0.600000X0*%
%ADD31RoundRect,0.225000X0.225000X0.575000X-0.225000X0.575000X-0.225000X-0.575000X0.225000X-0.575000X0*%
%ADD32O,1.000000X1.700000*%
%ADD33RoundRect,0.225000X-0.225000X-0.250000X0.225000X-0.250000X0.225000X0.250000X-0.225000X0.250000X0*%
%ADD34R,1.700000X1.700000*%
%ADD35C,1.700000*%
%ADD36C,0.800000*%
%ADD37C,0.600000*%
G04 APERTURE END LIST*
D10*
X117107500Y-67432500D03*
X117107500Y-68982500D03*
D11*
X107377500Y-70187500D03*
D12*
X89307500Y-64257500D03*
X91607500Y-64257500D03*
D13*
X91607500Y-57957500D03*
D12*
X93907500Y-64257500D03*
D14*
X104947500Y-67417500D03*
X104947500Y-69067500D03*
D15*
X102802500Y-71542500D03*
X102802500Y-70272500D03*
X102802500Y-69002500D03*
X102802500Y-67732500D03*
X97852500Y-67732500D03*
X97852500Y-69002500D03*
X97852500Y-70272500D03*
X97852500Y-71542500D03*
D16*
X100327500Y-69637500D03*
D14*
X117107500Y-70482500D03*
X117107500Y-72132500D03*
D17*
X92587500Y-66617500D03*
X90687500Y-66617500D03*
D18*
X104492500Y-62917500D03*
X102842500Y-62917500D03*
D19*
X101147500Y-58567500D03*
D20*
X99147500Y-58567500D03*
D14*
X104947500Y-70517500D03*
X104947500Y-72167500D03*
D21*
X101257500Y-62907500D03*
X98757500Y-62907500D03*
D18*
X95872500Y-70242500D03*
X94222500Y-70242500D03*
D22*
X121117500Y-64040000D03*
X121117500Y-62465000D03*
D23*
X116157500Y-65507500D03*
X118657500Y-65507500D03*
D24*
X127517500Y-62525000D03*
X127517500Y-64100000D03*
D25*
X104477500Y-61432500D03*
X104477500Y-59782500D03*
D26*
X107887500Y-67572500D03*
X107887500Y-66022500D03*
D25*
X108367500Y-63772500D03*
X108367500Y-62122500D03*
D27*
X103052500Y-66042500D03*
X101502500Y-66042500D03*
D14*
X124377500Y-59387500D03*
X124377500Y-61037500D03*
D22*
X124377500Y-64100000D03*
X124377500Y-62525000D03*
D28*
X86927500Y-60207500D03*
X86927500Y-62107500D03*
D29*
X115047500Y-63117500D03*
D30*
X113027500Y-63117500D03*
D31*
X111797500Y-63117500D03*
D29*
X114047500Y-63117500D03*
D30*
X116067500Y-63117500D03*
D31*
X117297500Y-63117500D03*
D32*
X118867500Y-62937500D03*
X118867500Y-59137500D03*
X110227500Y-62937500D03*
X110227500Y-59137500D03*
D25*
X127517500Y-61037500D03*
X127517500Y-59387500D03*
D33*
X97427500Y-66042500D03*
X98977500Y-66042500D03*
D15*
X115032500Y-71432500D03*
X115032500Y-70162500D03*
X115032500Y-68892500D03*
X115032500Y-67622500D03*
X110082500Y-67622500D03*
X110082500Y-68892500D03*
X110082500Y-70162500D03*
X110082500Y-71432500D03*
D16*
X112557500Y-69527500D03*
D14*
X121117500Y-59377500D03*
X121117500Y-61027500D03*
D25*
X106787500Y-63772500D03*
X106787500Y-62122500D03*
D34*
X82877500Y-69237500D03*
D35*
X80337500Y-69237500D03*
X82877500Y-71777500D03*
X80337500Y-71777500D03*
X82877500Y-74317500D03*
X80337500Y-74317500D03*
D34*
X127937500Y-69237500D03*
D35*
X125397500Y-69237500D03*
X127937500Y-71777500D03*
X125397500Y-71777500D03*
X127937500Y-74317500D03*
X125397500Y-74317500D03*
D36*
X88777500Y-66527500D03*
X113127500Y-67227500D03*
D37*
X111977500Y-71727500D03*
X111977500Y-66377500D03*
X108377500Y-61327500D03*
X112727500Y-71727500D03*
D36*
X111977500Y-67227500D03*
X111797500Y-61837500D03*
X100237500Y-66037500D03*
D37*
X123577500Y-59327500D03*
X93477500Y-70227500D03*
D36*
X101007500Y-71737500D03*
X99727500Y-71747500D03*
D37*
X101077500Y-67427500D03*
X100277500Y-67427500D03*
X105277500Y-59727500D03*
D36*
X87377500Y-63527500D03*
D37*
X113477500Y-71727500D03*
X113127500Y-66377500D03*
D36*
X119627500Y-65477500D03*
X107057500Y-65537500D03*
X87377500Y-64927500D03*
X97777500Y-62927500D03*
X87377500Y-66527500D03*
D37*
X106777500Y-61327500D03*
X99527500Y-67427500D03*
D36*
X117297500Y-61827500D03*
D37*
X126677500Y-59227500D03*
X106277500Y-68077500D03*
X106287500Y-66537500D03*
M02*
