G04 #@! TF.GenerationSoftware,KiCad,Pcbnew,9.0.1*
G04 #@! TF.CreationDate,2025-05-19T19:41:34+12:00*
G04 #@! TF.ProjectId,breadbat,62726561-6462-4617-942e-6b696361645f,v1.0.1*
G04 #@! TF.SameCoordinates,Original*
G04 #@! TF.FileFunction,Soldermask,Bot*
G04 #@! TF.FilePolarity,Negative*
%FSLAX46Y46*%
G04 Gerber Fmt 4.6, Leading zero omitted, Abs format (unit mm)*
G04 Created by KiCad (PCBNEW 9.0.1) date 2025-05-19 19:41:34*
%MOMM*%
%LPD*%
G01*
G04 APERTURE LIST*
G04 Aperture macros list*
%AMRoundRect*
0 Rectangle with rounded corners*
0 $1 Rounding radius*
0 $2 $3 $4 $5 $6 $7 $8 $9 X,Y pos of 4 corners*
0 Add a 4 corners polygon primitive as box body*
4,1,4,$2,$3,$4,$5,$6,$7,$8,$9,$2,$3,0*
0 Add four circle primitives for the rounded corners*
1,1,$1+$1,$2,$3*
1,1,$1+$1,$4,$5*
1,1,$1+$1,$6,$7*
1,1,$1+$1,$8,$9*
0 Add four rect primitives between the rounded corners*
20,1,$1+$1,$2,$3,$4,$5,0*
20,1,$1+$1,$4,$5,$6,$7,0*
20,1,$1+$1,$6,$7,$8,$9,0*
20,1,$1+$1,$8,$9,$2,$3,0*%
G04 Aperture macros list end*
%ADD10O,1.200000X1.750000*%
%ADD11RoundRect,0.250000X-0.350000X-0.625000X0.350000X-0.625000X0.350000X0.625000X-0.350000X0.625000X0*%
%ADD12O,1.000000X1.700000*%
%ADD13R,1.700000X1.700000*%
%ADD14C,1.700000*%
%ADD15C,1.500000*%
%ADD16C,0.800000*%
%ADD17C,0.600000*%
G04 APERTURE END LIST*
D10*
X101147500Y-58567500D03*
D11*
X99147500Y-58567500D03*
D12*
X118867500Y-62937500D03*
X118867500Y-59137500D03*
X110227500Y-62937500D03*
X110227500Y-59137500D03*
D13*
X82877500Y-69237500D03*
D14*
X80337500Y-69237500D03*
X82877500Y-71777500D03*
X80337500Y-71777500D03*
X82877500Y-74317500D03*
X80337500Y-74317500D03*
D13*
X127937500Y-69237500D03*
D14*
X125397500Y-69237500D03*
X127937500Y-71777500D03*
X125397500Y-71777500D03*
X127937500Y-74317500D03*
X125397500Y-74317500D03*
D15*
X90887500Y-70017500D03*
D16*
X88777500Y-66527500D03*
X113127500Y-67227500D03*
D17*
X111977500Y-71727500D03*
X111977500Y-66377500D03*
X108377500Y-61327500D03*
X112727500Y-71727500D03*
D16*
X111977500Y-67227500D03*
X111797500Y-61837500D03*
X100237500Y-66037500D03*
D17*
X123577500Y-59327500D03*
X93477500Y-70227500D03*
D16*
X101007500Y-71737500D03*
X99727500Y-71747500D03*
D17*
X101077500Y-67427500D03*
X100277500Y-67427500D03*
X105277500Y-59727500D03*
D16*
X87377500Y-63527500D03*
D17*
X113477500Y-71727500D03*
X113127500Y-66377500D03*
D16*
X119627500Y-65477500D03*
X107057500Y-65537500D03*
X87377500Y-64927500D03*
X97777500Y-62927500D03*
X87377500Y-66527500D03*
D17*
X106777500Y-61327500D03*
X99527500Y-67427500D03*
D16*
X117297500Y-61827500D03*
D17*
X126677500Y-59227500D03*
X106277500Y-68077500D03*
X106287500Y-66537500D03*
M02*
