G04 #@! TF.GenerationSoftware,KiCad,Pcbnew,9.0.1*
G04 #@! TF.CreationDate,2025-05-19T19:41:34+12:00*
G04 #@! TF.ProjectId,breadbat,62726561-6462-4617-942e-6b696361645f,v1.0.1*
G04 #@! TF.SameCoordinates,Original*
G04 #@! TF.FileFunction,Copper,L1,Top*
G04 #@! TF.FilePolarity,Positive*
%FSLAX46Y46*%
G04 Gerber Fmt 4.6, Leading zero omitted, Abs format (unit mm)*
G04 Created by KiCad (PCBNEW 9.0.1) date 2025-05-19 19:41:34*
%MOMM*%
%LPD*%
G01*
G04 APERTURE LIST*
G04 Aperture macros list*
%AMRoundRect*
0 Rectangle with rounded corners*
0 $1 Rounding radius*
0 $2 $3 $4 $5 $6 $7 $8 $9 X,Y pos of 4 corners*
0 Add a 4 corners polygon primitive as box body*
4,1,4,$2,$3,$4,$5,$6,$7,$8,$9,$2,$3,0*
0 Add four circle primitives for the rounded corners*
1,1,$1+$1,$2,$3*
1,1,$1+$1,$4,$5*
1,1,$1+$1,$6,$7*
1,1,$1+$1,$8,$9*
0 Add four rect primitives between the rounded corners*
20,1,$1+$1,$2,$3,$4,$5,0*
20,1,$1+$1,$4,$5,$6,$7,0*
20,1,$1+$1,$6,$7,$8,$9,0*
20,1,$1+$1,$8,$9,$2,$3,0*%
G04 Aperture macros list end*
G04 #@! TA.AperFunction,SMDPad,CuDef*
%ADD10RoundRect,0.225000X-0.250000X0.225000X-0.250000X-0.225000X0.250000X-0.225000X0.250000X0.225000X0*%
G04 #@! TD*
G04 #@! TA.AperFunction,SMDPad,CuDef*
%ADD11C,1.500000*%
G04 #@! TD*
G04 #@! TA.AperFunction,SMDPad,CuDef*
%ADD12RoundRect,0.375000X0.375000X-0.625000X0.375000X0.625000X-0.375000X0.625000X-0.375000X-0.625000X0*%
G04 #@! TD*
G04 #@! TA.AperFunction,SMDPad,CuDef*
%ADD13RoundRect,0.500000X1.400000X-0.500000X1.400000X0.500000X-1.400000X0.500000X-1.400000X-0.500000X0*%
G04 #@! TD*
G04 #@! TA.AperFunction,SMDPad,CuDef*
%ADD14RoundRect,0.200000X-0.275000X0.200000X-0.275000X-0.200000X0.275000X-0.200000X0.275000X0.200000X0*%
G04 #@! TD*
G04 #@! TA.AperFunction,SMDPad,CuDef*
%ADD15RoundRect,0.150000X0.825000X0.150000X-0.825000X0.150000X-0.825000X-0.150000X0.825000X-0.150000X0*%
G04 #@! TD*
G04 #@! TA.AperFunction,HeatsinkPad*
%ADD16C,0.500000*%
G04 #@! TD*
G04 #@! TA.AperFunction,HeatsinkPad*
%ADD17R,2.410000X3.300000*%
G04 #@! TD*
G04 #@! TA.AperFunction,SMDPad,CuDef*
%ADD18RoundRect,0.250000X0.250000X0.475000X-0.250000X0.475000X-0.250000X-0.475000X0.250000X-0.475000X0*%
G04 #@! TD*
G04 #@! TA.AperFunction,SMDPad,CuDef*
%ADD19RoundRect,0.200000X0.200000X0.275000X-0.200000X0.275000X-0.200000X-0.275000X0.200000X-0.275000X0*%
G04 #@! TD*
G04 #@! TA.AperFunction,ComponentPad*
%ADD20O,1.200000X1.750000*%
G04 #@! TD*
G04 #@! TA.AperFunction,ComponentPad*
%ADD21RoundRect,0.250000X-0.350000X-0.625000X0.350000X-0.625000X0.350000X0.625000X-0.350000X0.625000X0*%
G04 #@! TD*
G04 #@! TA.AperFunction,SMDPad,CuDef*
%ADD22RoundRect,0.250000X0.250000X0.250000X-0.250000X0.250000X-0.250000X-0.250000X0.250000X-0.250000X0*%
G04 #@! TD*
G04 #@! TA.AperFunction,SMDPad,CuDef*
%ADD23RoundRect,0.218750X0.256250X-0.218750X0.256250X0.218750X-0.256250X0.218750X-0.256250X-0.218750X0*%
G04 #@! TD*
G04 #@! TA.AperFunction,SMDPad,CuDef*
%ADD24RoundRect,0.250000X-0.250000X-0.250000X0.250000X-0.250000X0.250000X0.250000X-0.250000X0.250000X0*%
G04 #@! TD*
G04 #@! TA.AperFunction,SMDPad,CuDef*
%ADD25RoundRect,0.218750X-0.256250X0.218750X-0.256250X-0.218750X0.256250X-0.218750X0.256250X0.218750X0*%
G04 #@! TD*
G04 #@! TA.AperFunction,SMDPad,CuDef*
%ADD26RoundRect,0.200000X0.275000X-0.200000X0.275000X0.200000X-0.275000X0.200000X-0.275000X-0.200000X0*%
G04 #@! TD*
G04 #@! TA.AperFunction,SMDPad,CuDef*
%ADD27RoundRect,0.225000X0.250000X-0.225000X0.250000X0.225000X-0.250000X0.225000X-0.250000X-0.225000X0*%
G04 #@! TD*
G04 #@! TA.AperFunction,SMDPad,CuDef*
%ADD28RoundRect,0.225000X0.225000X0.250000X-0.225000X0.250000X-0.225000X-0.250000X0.225000X-0.250000X0*%
G04 #@! TD*
G04 #@! TA.AperFunction,SMDPad,CuDef*
%ADD29RoundRect,0.250000X-0.475000X0.250000X-0.475000X-0.250000X0.475000X-0.250000X0.475000X0.250000X0*%
G04 #@! TD*
G04 #@! TA.AperFunction,SMDPad,CuDef*
%ADD30RoundRect,0.175000X0.175000X0.625000X-0.175000X0.625000X-0.175000X-0.625000X0.175000X-0.625000X0*%
G04 #@! TD*
G04 #@! TA.AperFunction,SMDPad,CuDef*
%ADD31RoundRect,0.200000X0.200000X0.600000X-0.200000X0.600000X-0.200000X-0.600000X0.200000X-0.600000X0*%
G04 #@! TD*
G04 #@! TA.AperFunction,SMDPad,CuDef*
%ADD32RoundRect,0.225000X0.225000X0.575000X-0.225000X0.575000X-0.225000X-0.575000X0.225000X-0.575000X0*%
G04 #@! TD*
G04 #@! TA.AperFunction,HeatsinkPad*
%ADD33O,1.000000X1.700000*%
G04 #@! TD*
G04 #@! TA.AperFunction,SMDPad,CuDef*
%ADD34RoundRect,0.225000X-0.225000X-0.250000X0.225000X-0.250000X0.225000X0.250000X-0.225000X0.250000X0*%
G04 #@! TD*
G04 #@! TA.AperFunction,ComponentPad*
%ADD35R,1.700000X1.700000*%
G04 #@! TD*
G04 #@! TA.AperFunction,ComponentPad*
%ADD36C,1.700000*%
G04 #@! TD*
G04 #@! TA.AperFunction,ViaPad*
%ADD37C,0.800000*%
G04 #@! TD*
G04 #@! TA.AperFunction,ViaPad*
%ADD38C,0.600000*%
G04 #@! TD*
G04 #@! TA.AperFunction,Conductor*
%ADD39C,0.500000*%
G04 #@! TD*
G04 #@! TA.AperFunction,Conductor*
%ADD40C,0.150000*%
G04 #@! TD*
G04 #@! TA.AperFunction,Conductor*
%ADD41C,0.300000*%
G04 #@! TD*
G04 #@! TA.AperFunction,Conductor*
%ADD42C,0.200000*%
G04 #@! TD*
G04 #@! TA.AperFunction,Conductor*
%ADD43C,0.400000*%
G04 #@! TD*
G04 #@! TA.AperFunction,Conductor*
%ADD44C,0.800000*%
G04 #@! TD*
G04 APERTURE END LIST*
D10*
X117107500Y-67432500D03*
X117107500Y-68982500D03*
D11*
X107377500Y-70187500D03*
D12*
X89307500Y-64257500D03*
X91607500Y-64257500D03*
D13*
X91607500Y-57957500D03*
D12*
X93907500Y-64257500D03*
D14*
X104947500Y-67417500D03*
X104947500Y-69067500D03*
D15*
X102802500Y-71542500D03*
X102802500Y-70272500D03*
X102802500Y-69002500D03*
X102802500Y-67732500D03*
X97852500Y-67732500D03*
X97852500Y-69002500D03*
X97852500Y-70272500D03*
X97852500Y-71542500D03*
D16*
X101027500Y-70837500D03*
X101027500Y-69637500D03*
X101027500Y-68437500D03*
D17*
X100327500Y-69637500D03*
D16*
X99627500Y-70837500D03*
X99627500Y-69637500D03*
X99627500Y-68437500D03*
D14*
X117107500Y-70482500D03*
X117107500Y-72132500D03*
D18*
X92587500Y-66617500D03*
X90687500Y-66617500D03*
D19*
X104492500Y-62917500D03*
X102842500Y-62917500D03*
D20*
X101147500Y-58567500D03*
D21*
X99147500Y-58567500D03*
D14*
X104947500Y-70517500D03*
X104947500Y-72167500D03*
D22*
X101257500Y-62907500D03*
X98757500Y-62907500D03*
D19*
X95872500Y-70242500D03*
X94222500Y-70242500D03*
D23*
X121117500Y-64040000D03*
X121117500Y-62465000D03*
D24*
X116157500Y-65507500D03*
X118657500Y-65507500D03*
D25*
X127517500Y-62525000D03*
X127517500Y-64100000D03*
D26*
X104477500Y-61432500D03*
X104477500Y-59782500D03*
D27*
X107887500Y-67572500D03*
X107887500Y-66022500D03*
D26*
X108367500Y-63772500D03*
X108367500Y-62122500D03*
D28*
X103052500Y-66042500D03*
X101502500Y-66042500D03*
D14*
X124377500Y-59387500D03*
X124377500Y-61037500D03*
D23*
X124377500Y-64100000D03*
X124377500Y-62525000D03*
D29*
X86927500Y-60207500D03*
X86927500Y-62107500D03*
D30*
X115047500Y-63117500D03*
D31*
X113027500Y-63117500D03*
D32*
X111797500Y-63117500D03*
D30*
X114047500Y-63117500D03*
D31*
X116067500Y-63117500D03*
D32*
X117297500Y-63117500D03*
D33*
X118867500Y-62937500D03*
X118867500Y-59137500D03*
X110227500Y-62937500D03*
X110227500Y-59137500D03*
D26*
X127517500Y-61037500D03*
X127517500Y-59387500D03*
D34*
X97427500Y-66042500D03*
X98977500Y-66042500D03*
D15*
X115032500Y-71432500D03*
X115032500Y-70162500D03*
X115032500Y-68892500D03*
X115032500Y-67622500D03*
X110082500Y-67622500D03*
X110082500Y-68892500D03*
X110082500Y-70162500D03*
X110082500Y-71432500D03*
D16*
X113257500Y-70727500D03*
X113257500Y-69527500D03*
X113257500Y-68327500D03*
D17*
X112557500Y-69527500D03*
D16*
X111857500Y-70727500D03*
X111857500Y-69527500D03*
X111857500Y-68327500D03*
D14*
X121117500Y-59377500D03*
X121117500Y-61027500D03*
D26*
X106787500Y-63772500D03*
X106787500Y-62122500D03*
D35*
X82877500Y-69237500D03*
D36*
X80337500Y-69237500D03*
X82877500Y-71777500D03*
X80337500Y-71777500D03*
X82877500Y-74317500D03*
X80337500Y-74317500D03*
D35*
X127937500Y-69237500D03*
D36*
X125397500Y-69237500D03*
X127937500Y-71777500D03*
X125397500Y-71777500D03*
X127937500Y-74317500D03*
X125397500Y-74317500D03*
D37*
X88777500Y-66527500D03*
X113127500Y-67227500D03*
D38*
X111977500Y-71727500D03*
X111977500Y-66377500D03*
X108377500Y-61327500D03*
X112727500Y-71727500D03*
D37*
X111977500Y-67227500D03*
X111797500Y-61837500D03*
X100237500Y-66037500D03*
D38*
X123577500Y-59327500D03*
X93477500Y-70227500D03*
D37*
X101007500Y-71737500D03*
X99727500Y-71747500D03*
D38*
X101077500Y-67427500D03*
X100277500Y-67427500D03*
X105277500Y-59727500D03*
D37*
X87377500Y-63527500D03*
D38*
X113477500Y-71727500D03*
X113127500Y-66377500D03*
D37*
X119627500Y-65477500D03*
X107057500Y-65537500D03*
X87377500Y-64927500D03*
X97777500Y-62927500D03*
X87377500Y-66527500D03*
D38*
X106777500Y-61327500D03*
X99527500Y-67427500D03*
D37*
X117297500Y-61827500D03*
D38*
X126677500Y-59227500D03*
X106277500Y-68077500D03*
X106287500Y-66537500D03*
D39*
X102842500Y-65832500D02*
X103052500Y-66042500D01*
X101147500Y-58567500D02*
X101147500Y-62797500D01*
X105077500Y-67287500D02*
X104947500Y-67417500D01*
X102802500Y-67732500D02*
X104632500Y-67732500D01*
X101257500Y-62907500D02*
X102832500Y-62907500D01*
X104632500Y-67732500D02*
X104947500Y-67417500D01*
X103052500Y-67482500D02*
X102802500Y-67732500D01*
X110082500Y-67622500D02*
X107937500Y-67622500D01*
X107887500Y-67572500D02*
X107602500Y-67287500D01*
X101147500Y-62797500D02*
X101257500Y-62907500D01*
X107937500Y-67622500D02*
X107887500Y-67572500D01*
X102842500Y-62917500D02*
X102842500Y-65832500D01*
X107602500Y-67287500D02*
X105077500Y-67287500D01*
X103052500Y-66042500D02*
X103052500Y-67482500D01*
X102832500Y-62907500D02*
X102842500Y-62917500D01*
X117297500Y-63117500D02*
X117297500Y-61827500D01*
D40*
X105222500Y-59782500D02*
X105277500Y-59727500D01*
D41*
X116407500Y-71432500D02*
X117107500Y-72132500D01*
D40*
X106787500Y-61337500D02*
X106777500Y-61327500D01*
D39*
X119597500Y-65507500D02*
X119627500Y-65477500D01*
X116172500Y-68982500D02*
X117107500Y-68982500D01*
X115032500Y-68892500D02*
X116052500Y-68892500D01*
D40*
X108367500Y-61337500D02*
X108377500Y-61327500D01*
D39*
X111797500Y-63117500D02*
X111797500Y-61837500D01*
X116052500Y-68892500D02*
X116157500Y-68997500D01*
D40*
X106787500Y-62122500D02*
X106787500Y-61337500D01*
X108367500Y-62122500D02*
X108367500Y-61337500D01*
D42*
X102802500Y-71542500D02*
X104322500Y-71542500D01*
X127517500Y-59387500D02*
X126837500Y-59387500D01*
D39*
X116157500Y-68997500D02*
X116172500Y-68982500D01*
D41*
X94222500Y-70242500D02*
X93492500Y-70242500D01*
D42*
X124377500Y-59387500D02*
X123637500Y-59387500D01*
X126837500Y-59387500D02*
X126677500Y-59227500D01*
X104322500Y-71542500D02*
X104947500Y-72167500D01*
D39*
X118657500Y-65507500D02*
X119597500Y-65507500D01*
D43*
X107887500Y-66022500D02*
X107542500Y-66022500D01*
D42*
X123637500Y-59387500D02*
X123577500Y-59327500D01*
D41*
X115032500Y-71432500D02*
X116407500Y-71432500D01*
D39*
X98757500Y-62907500D02*
X97797500Y-62907500D01*
D40*
X104477500Y-59782500D02*
X105222500Y-59782500D01*
D39*
X97797500Y-62907500D02*
X97777500Y-62927500D01*
D43*
X107542500Y-66022500D02*
X107057500Y-65537500D01*
D41*
X93492500Y-70242500D02*
X93477500Y-70227500D01*
D44*
X80337500Y-74317500D02*
X80337500Y-65777500D01*
X80337500Y-63217500D02*
X84527500Y-59027500D01*
X84527500Y-59027500D02*
X85327500Y-58227500D01*
D42*
X125397500Y-69237500D02*
X125397500Y-66220000D01*
D44*
X92477500Y-75127500D02*
X124587500Y-75127500D01*
D42*
X125397500Y-66220000D02*
X127517500Y-64100000D01*
D44*
X85327500Y-58227500D02*
X87277500Y-58227500D01*
X83127500Y-65777500D02*
X92477500Y-75127500D01*
X124587500Y-75127500D02*
X125397500Y-74317500D01*
X125397500Y-74317500D02*
X125397500Y-69237500D01*
X80337500Y-65777500D02*
X83127500Y-65777500D01*
X80337500Y-65777500D02*
X80337500Y-63217500D01*
D42*
X127517500Y-61037500D02*
X127517500Y-62525000D01*
X116357500Y-60727500D02*
X119767500Y-60727500D01*
X118177500Y-72367500D02*
X118177500Y-68257500D01*
D39*
X116157500Y-65507500D02*
X117107500Y-66457500D01*
X116067500Y-63117500D02*
X116067500Y-65417500D01*
X113027500Y-63117500D02*
X113027500Y-61917500D01*
D42*
X117457500Y-73087500D02*
X118177500Y-72367500D01*
D39*
X113437500Y-61507500D02*
X115577500Y-61507500D01*
X115032500Y-67622500D02*
X116022500Y-67622500D01*
X117107500Y-66457500D02*
X117107500Y-67432500D01*
X113027500Y-61917500D02*
X113437500Y-61507500D01*
X116022500Y-67622500D02*
X116212500Y-67432500D01*
X115577500Y-61507500D02*
X116067500Y-61997500D01*
X116212500Y-67432500D02*
X117107500Y-67432500D01*
X116067500Y-65417500D02*
X116157500Y-65507500D01*
D42*
X117352500Y-67432500D02*
X117107500Y-67432500D01*
X110082500Y-71432500D02*
X111737500Y-73087500D01*
X119767500Y-60727500D02*
X121117500Y-59377500D01*
X111737500Y-73087500D02*
X117457500Y-73087500D01*
X115577500Y-61507500D02*
X116357500Y-60727500D01*
D39*
X116067500Y-61997500D02*
X116067500Y-63117500D01*
D42*
X118177500Y-68257500D02*
X117352500Y-67432500D01*
X124377500Y-61037500D02*
X124377500Y-62525000D01*
X122977500Y-69827500D02*
X118577500Y-74227500D01*
X97177500Y-74227500D02*
X95077500Y-72127500D01*
X122977500Y-65500000D02*
X122977500Y-69827500D01*
X118577500Y-74227500D02*
X97177500Y-74227500D01*
X95077500Y-69727500D02*
X95802500Y-69002500D01*
X95802500Y-69002500D02*
X97852500Y-69002500D01*
X95077500Y-72127500D02*
X95077500Y-69727500D01*
X124377500Y-64100000D02*
X122977500Y-65500000D01*
X121117500Y-62465000D02*
X121117500Y-61027500D01*
X121117500Y-70487500D02*
X121117500Y-64040000D01*
X108527500Y-70357500D02*
X108527500Y-72977500D01*
X108722500Y-70162500D02*
X108527500Y-70357500D01*
X109177500Y-73627500D02*
X117977500Y-73627500D01*
X108527500Y-72977500D02*
X109177500Y-73627500D01*
X117977500Y-73627500D02*
X121117500Y-70487500D01*
X110082500Y-70162500D02*
X108722500Y-70162500D01*
D40*
X115047500Y-63117500D02*
X115047500Y-63917500D01*
X108022500Y-65007500D02*
X106787500Y-63772500D01*
X113957500Y-65007500D02*
X108022500Y-65007500D01*
X115047500Y-63917500D02*
X113957500Y-65007500D01*
X114047500Y-63967500D02*
X114047500Y-63117500D01*
X109102500Y-64507500D02*
X113507500Y-64507500D01*
X113507500Y-64507500D02*
X114047500Y-63967500D01*
X108367500Y-63772500D02*
X109102500Y-64507500D01*
X105427500Y-73417500D02*
X99727500Y-73417500D01*
X104492500Y-62917500D02*
X104492500Y-61447500D01*
X99727500Y-73417500D02*
X97852500Y-71542500D01*
X104492500Y-61447500D02*
X104477500Y-61432500D01*
X104492500Y-64742500D02*
X104492500Y-62917500D01*
X106277500Y-68077500D02*
X106277500Y-72567500D01*
X106277500Y-72567500D02*
X105427500Y-73417500D01*
X106287500Y-66537500D02*
X104492500Y-64742500D01*
D41*
X95902500Y-70272500D02*
X95872500Y-70242500D01*
X97852500Y-70272500D02*
X95902500Y-70272500D01*
X115032500Y-70162500D02*
X116787500Y-70162500D01*
X116787500Y-70162500D02*
X117107500Y-70482500D01*
D42*
X104947500Y-69067500D02*
X104947500Y-70517500D01*
X102802500Y-69002500D02*
X104882500Y-69002500D01*
X104882500Y-69002500D02*
X104947500Y-69067500D01*
X108672500Y-68892500D02*
X107377500Y-70187500D01*
X110082500Y-68892500D02*
X108672500Y-68892500D01*
G04 #@! TA.AperFunction,Conductor*
G36*
X95294057Y-63249330D02*
G01*
X95361007Y-63269315D01*
X95406524Y-63322324D01*
X95417500Y-63373329D01*
X95417500Y-65347499D01*
X95417500Y-65347500D01*
X98024408Y-65366598D01*
X98091302Y-65386773D01*
X98136669Y-65439911D01*
X98147500Y-65490595D01*
X98147500Y-67804491D01*
X98127815Y-67871530D01*
X98075011Y-67917285D01*
X98023601Y-67928491D01*
X92138111Y-67933284D01*
X92071056Y-67913654D01*
X92025258Y-67860887D01*
X92014062Y-67805698D01*
X92014097Y-67804491D01*
X92078005Y-65595643D01*
X92099620Y-65529204D01*
X92153725Y-65484995D01*
X92167342Y-65480161D01*
X92232890Y-65461118D01*
X92368920Y-65380670D01*
X92445772Y-65303817D01*
X92507093Y-65270334D01*
X92533452Y-65267500D01*
X93187500Y-65267500D01*
X93187500Y-63364441D01*
X93207185Y-63297402D01*
X93259989Y-63251647D01*
X93312053Y-63240442D01*
X95294057Y-63249330D01*
G37*
G04 #@! TD.AperFunction*
G04 #@! TA.AperFunction,Conductor*
G36*
X100709343Y-65480175D02*
G01*
X100776234Y-65500350D01*
X100821601Y-65553487D01*
X100831038Y-65622717D01*
X100824615Y-65647505D01*
X100808583Y-65690487D01*
X100802500Y-65747071D01*
X100802500Y-65792500D01*
X101378500Y-65792500D01*
X101445539Y-65812185D01*
X101491294Y-65864989D01*
X101502500Y-65916500D01*
X101502500Y-66042500D01*
X101628500Y-66042500D01*
X101695539Y-66062185D01*
X101710041Y-66078921D01*
X101710041Y-66861514D01*
X98956161Y-66871492D01*
X98957742Y-66767499D01*
X99227500Y-66767499D01*
X99247933Y-66767499D01*
X99247939Y-66767498D01*
X99304507Y-66761418D01*
X99432481Y-66713686D01*
X99432484Y-66713684D01*
X99541829Y-66631829D01*
X99623684Y-66522484D01*
X99623685Y-66522483D01*
X99671416Y-66394510D01*
X99677498Y-66337939D01*
X100802501Y-66337939D01*
X100808581Y-66394507D01*
X100856313Y-66522481D01*
X100856315Y-66522484D01*
X100938170Y-66631829D01*
X101047515Y-66713684D01*
X101047516Y-66713685D01*
X101175491Y-66761417D01*
X101175495Y-66761418D01*
X101232054Y-66767499D01*
X101252500Y-66767498D01*
X101252500Y-66292500D01*
X100802501Y-66292500D01*
X100802501Y-66337939D01*
X99677498Y-66337939D01*
X99677499Y-66337928D01*
X99677500Y-66337927D01*
X99677500Y-66292500D01*
X99227500Y-66292500D01*
X99227500Y-66767499D01*
X98957742Y-66767499D01*
X98968761Y-66042500D01*
X98977500Y-66042500D01*
X98977500Y-65916500D01*
X98997185Y-65849461D01*
X99049989Y-65803706D01*
X99101500Y-65792500D01*
X99677499Y-65792500D01*
X99677499Y-65747066D01*
X99677498Y-65747060D01*
X99671417Y-65690492D01*
X99652820Y-65640631D01*
X99647834Y-65570940D01*
X99681319Y-65509616D01*
X99742641Y-65476130D01*
X99769901Y-65473299D01*
X100709343Y-65480175D01*
G37*
G04 #@! TD.AperFunction*
G04 #@! TA.AperFunction,Conductor*
G36*
X93620539Y-57047185D02*
G01*
X93666294Y-57099989D01*
X93677500Y-57151500D01*
X93677500Y-61203500D01*
X93657815Y-61270539D01*
X93605011Y-61316294D01*
X93553500Y-61327500D01*
X92377500Y-61327500D01*
X92358853Y-64991532D01*
X92348981Y-65024530D01*
X92339375Y-65057621D01*
X92338942Y-65058086D01*
X92338828Y-65058470D01*
X92316344Y-65084365D01*
X92312851Y-65087409D01*
X92265105Y-65123152D01*
X92219160Y-65169096D01*
X92215961Y-65171886D01*
X92212853Y-65173316D01*
X92197593Y-65185154D01*
X92144094Y-65216793D01*
X92115572Y-65229136D01*
X92096074Y-65234801D01*
X92081850Y-65239388D01*
X92068259Y-65244212D01*
X92063546Y-65246358D01*
X92012173Y-65257500D01*
X90981500Y-65257500D01*
X90914461Y-65237815D01*
X90868706Y-65185011D01*
X90857500Y-65133500D01*
X90857500Y-60927500D01*
X86326500Y-60927500D01*
X86259461Y-60907815D01*
X86213706Y-60855011D01*
X86202500Y-60803500D01*
X86202500Y-57151500D01*
X86222185Y-57084461D01*
X86274989Y-57038706D01*
X86326500Y-57027500D01*
X93553500Y-57027500D01*
X93620539Y-57047185D01*
G37*
G04 #@! TD.AperFunction*
G04 #@! TA.AperFunction,Conductor*
G36*
X90054124Y-61626879D02*
G01*
X90121063Y-61646900D01*
X90166552Y-61699934D01*
X90177500Y-61750877D01*
X90177500Y-65827500D01*
X91153500Y-65827500D01*
X91220539Y-65847185D01*
X91266294Y-65899989D01*
X91277500Y-65951500D01*
X91277500Y-67403500D01*
X91257815Y-67470539D01*
X91205011Y-67516294D01*
X91153500Y-67527500D01*
X86326500Y-67527500D01*
X86259461Y-67507815D01*
X86213706Y-67455011D01*
X86202500Y-67403500D01*
X86202500Y-61732125D01*
X86222185Y-61665086D01*
X86274989Y-61619331D01*
X86327123Y-61608127D01*
X90054124Y-61626879D01*
G37*
G04 #@! TD.AperFunction*
G04 #@! TA.AperFunction,Conductor*
G36*
X113920539Y-66047185D02*
G01*
X113966294Y-66099989D01*
X113977500Y-66151500D01*
X113977500Y-67019741D01*
X113957815Y-67086780D01*
X113927135Y-67119510D01*
X113885354Y-67150346D01*
X113885350Y-67150350D01*
X113804707Y-67259617D01*
X113804706Y-67259619D01*
X113759853Y-67387798D01*
X113759853Y-67387800D01*
X113757000Y-67418230D01*
X113757000Y-67826769D01*
X113759853Y-67857199D01*
X113759853Y-67857201D01*
X113804706Y-67985380D01*
X113804707Y-67985382D01*
X113885350Y-68094650D01*
X113927134Y-68125488D01*
X113969384Y-68181134D01*
X113977500Y-68225257D01*
X113977500Y-68392500D01*
X115883097Y-68392500D01*
X115950136Y-68412185D01*
X115995891Y-68464989D01*
X116007095Y-68515845D01*
X116011964Y-69437345D01*
X115992634Y-69504487D01*
X115940073Y-69550521D01*
X115887966Y-69562000D01*
X114153230Y-69562000D01*
X114122800Y-69564853D01*
X114122798Y-69564853D01*
X113994619Y-69609706D01*
X113994617Y-69609707D01*
X113885350Y-69690350D01*
X113804707Y-69799617D01*
X113804706Y-69799619D01*
X113759853Y-69927798D01*
X113759853Y-69927800D01*
X113757000Y-69958230D01*
X113757000Y-70366769D01*
X113759853Y-70397199D01*
X113759853Y-70397201D01*
X113804706Y-70525380D01*
X113804707Y-70525382D01*
X113885350Y-70634650D01*
X113994618Y-70715293D01*
X114037345Y-70730244D01*
X114122799Y-70760146D01*
X114153230Y-70763000D01*
X115895623Y-70763000D01*
X115962662Y-70782685D01*
X116008417Y-70835489D01*
X116019621Y-70886345D01*
X116026049Y-72102845D01*
X116006719Y-72169987D01*
X115954158Y-72216021D01*
X115902051Y-72227500D01*
X111553661Y-72227500D01*
X111486622Y-72207815D01*
X111440867Y-72155011D01*
X111429666Y-72102528D01*
X111476531Y-66150522D01*
X111496743Y-66083641D01*
X111549905Y-66038304D01*
X111600527Y-66027500D01*
X113853500Y-66027500D01*
X113920539Y-66047185D01*
G37*
G04 #@! TD.AperFunction*
G04 #@! TA.AperFunction,Conductor*
G36*
X101710041Y-66861619D02*
G01*
X101710669Y-67231365D01*
X101691098Y-67298437D01*
X101674353Y-67319253D01*
X101649451Y-67344155D01*
X101591852Y-67457198D01*
X101577000Y-67550975D01*
X101577000Y-67914017D01*
X101587792Y-67982157D01*
X101591854Y-68007804D01*
X101649450Y-68120842D01*
X101676057Y-68147449D01*
X101709542Y-68208770D01*
X101712376Y-68234919D01*
X101712825Y-68499208D01*
X101693254Y-68566281D01*
X101676509Y-68587098D01*
X101649450Y-68614157D01*
X101591852Y-68727198D01*
X101577000Y-68820975D01*
X101577000Y-69184017D01*
X101582337Y-69217712D01*
X101591854Y-69277804D01*
X101649450Y-69390842D01*
X101649452Y-69390844D01*
X101649453Y-69390846D01*
X101678220Y-69419612D01*
X101711706Y-69480934D01*
X101714540Y-69507084D01*
X101714981Y-69767053D01*
X101695410Y-69834125D01*
X101678665Y-69854942D01*
X101649450Y-69884157D01*
X101591852Y-69997198D01*
X101577000Y-70090975D01*
X101577000Y-70454017D01*
X101587792Y-70522157D01*
X101591854Y-70547804D01*
X101649450Y-70660842D01*
X101649452Y-70660844D01*
X101649453Y-70660846D01*
X101680383Y-70691775D01*
X101713869Y-70753097D01*
X101716703Y-70779246D01*
X101717500Y-71247499D01*
X101717500Y-71247500D01*
X103653201Y-71242801D01*
X103720286Y-71262323D01*
X103766169Y-71315016D01*
X103777500Y-71366801D01*
X103777500Y-72085298D01*
X103757815Y-72152337D01*
X103705011Y-72198092D01*
X103655312Y-72209285D01*
X99112584Y-72275671D01*
X99103331Y-72273100D01*
X99093836Y-72274522D01*
X99070216Y-72263900D01*
X99045264Y-72256968D01*
X99038871Y-72249804D01*
X99030113Y-72245866D01*
X99015985Y-72224159D01*
X98998742Y-72204838D01*
X98996221Y-72193794D01*
X98991999Y-72187307D01*
X98986774Y-72152407D01*
X98985885Y-71998918D01*
X99002714Y-71940350D01*
X99001119Y-71939538D01*
X99005550Y-71930842D01*
X99063146Y-71817804D01*
X99063146Y-71817802D01*
X99063147Y-71817801D01*
X99077999Y-71724024D01*
X99078000Y-71724019D01*
X99077999Y-71360982D01*
X99063146Y-71267196D01*
X99005550Y-71154158D01*
X99005549Y-71154157D01*
X99005548Y-71154155D01*
X99004237Y-71152351D01*
X99003322Y-71149787D01*
X99001119Y-71145463D01*
X99001677Y-71145178D01*
X98980758Y-71086544D01*
X98980559Y-71080228D01*
X98978581Y-70738969D01*
X98997876Y-70671820D01*
X99002266Y-70665360D01*
X99005543Y-70660848D01*
X99005550Y-70660842D01*
X99063146Y-70547804D01*
X99063146Y-70547802D01*
X99063147Y-70547801D01*
X99077999Y-70454024D01*
X99078000Y-70454019D01*
X99077999Y-70090982D01*
X99063146Y-69997196D01*
X99005550Y-69884158D01*
X99005545Y-69884153D01*
X98999811Y-69876259D01*
X99002103Y-69874593D01*
X98975975Y-69826744D01*
X98973144Y-69801116D01*
X98971266Y-69477207D01*
X98990562Y-69410056D01*
X99001596Y-69396283D01*
X99005546Y-69390845D01*
X99005550Y-69390842D01*
X99063146Y-69277804D01*
X99063146Y-69277802D01*
X99063147Y-69277801D01*
X99077999Y-69184024D01*
X99078000Y-69184019D01*
X99077999Y-68820982D01*
X99063146Y-68727196D01*
X99005550Y-68614158D01*
X99005546Y-68614154D01*
X99005545Y-68614152D01*
X99002055Y-68610662D01*
X98968570Y-68549339D01*
X98965739Y-68523709D01*
X98963946Y-68214525D01*
X98983242Y-68147375D01*
X99000257Y-68126134D01*
X99005550Y-68120842D01*
X99063146Y-68007804D01*
X99063146Y-68007802D01*
X99063147Y-68007801D01*
X99077999Y-67914024D01*
X99078000Y-67914019D01*
X99077999Y-67550982D01*
X99063146Y-67457196D01*
X99005550Y-67344158D01*
X98994650Y-67333258D01*
X98961166Y-67271938D01*
X98958333Y-67246303D01*
X98956168Y-66872745D01*
X98956173Y-66871491D01*
X101710041Y-66861514D01*
X101710041Y-66861619D01*
G37*
G04 #@! TD.AperFunction*
M02*
