M48
; DRILL file {KiCad 9.0.1} date 2025-05-19T19:02:09+1200
; FORMAT={-:-/ absolute / metric / decimal}
; #@! TF.CreationDate,2025-05-19T19:02:09+12:00
; #@! TF.GenerationSoftware,Kicad,Pcbnew,9.0.1
; #@! TF.FileFunction,Plated,1,2,PTH
FMAT,2
METRIC
; #@! TA.AperFunction,Plated,PTH,ComponentDrill
T1C0.200
; #@! TA.AperFunction,Plated,PTH,ViaDrill
T2C0.350
; #@! TA.AperFunction,Plated,PTH,ViaDrill
T3C0.500
; #@! TA.AperFunction,Plated,PTH,ComponentDrill
T4C0.500
; #@! TA.AperFunction,Plated,PTH,ComponentDrill
T5C0.750
; #@! TA.AperFunction,Plated,PTH,ComponentDrill
T6C1.000
%
G90
G05
T1
X99.627Y-68.438
X99.627Y-69.638
X99.627Y-70.837
X101.027Y-68.438
X101.027Y-69.638
X101.027Y-70.837
X111.858Y-68.328
X111.858Y-69.528
X111.858Y-70.727
X113.257Y-68.328
X113.257Y-69.528
X113.257Y-70.727
T2
X93.477Y-70.227
X99.527Y-67.427
X100.277Y-67.427
X101.078Y-67.427
X105.277Y-59.727
X106.277Y-68.078
X106.287Y-66.537
X106.777Y-61.328
X108.377Y-61.328
X111.977Y-66.377
X111.977Y-71.727
X112.727Y-71.727
X113.127Y-66.377
X113.477Y-71.727
X123.578Y-59.328
X126.677Y-59.227
T3
X87.377Y-63.527
X87.377Y-64.927
X87.377Y-66.528
X88.777Y-66.528
X97.777Y-62.927
X99.727Y-71.748
X100.237Y-66.037
X101.007Y-71.737
X107.057Y-65.537
X111.797Y-61.837
X111.977Y-67.227
X113.127Y-67.227
X117.297Y-61.828
X119.627Y-65.477
T5
X99.147Y-58.567
X101.147Y-58.567
T6
X80.337Y-69.237
X80.337Y-71.778
X80.337Y-74.317
X82.877Y-69.237
X82.877Y-71.778
X82.877Y-74.317
X125.397Y-69.237
X125.397Y-71.778
X125.397Y-74.317
X127.938Y-69.237
X127.938Y-71.778
X127.938Y-74.317
T4
G00X110.227Y-59.487
M15
G01X110.227Y-58.787
M16
G05
G00X110.227Y-63.287
M15
G01X110.227Y-62.587
M16
G05
G00X118.867Y-59.487
M15
G01X118.867Y-58.787
M16
G05
G00X118.867Y-63.287
M15
G01X118.867Y-62.587
M16
G05
M30
