G04 #@! TF.GenerationSoftware,KiCad,Pcbnew,9.0.1*
G04 #@! TF.CreationDate,2025-05-19T19:02:10+12:00*
G04 #@! TF.ProjectId,breadbat,62726561-6462-4617-942e-6b696361645f,v1.0.0*
G04 #@! TF.SameCoordinates,Original*
G04 #@! TF.FileFunction,Paste,Top*
G04 #@! TF.FilePolarity,Positive*
%FSLAX46Y46*%
G04 Gerber Fmt 4.6, Leading zero omitted, Abs format (unit mm)*
G04 Created by KiCad (PCBNEW 9.0.1) date 2025-05-19 19:02:10*
%MOMM*%
%LPD*%
G01*
G04 APERTURE LIST*
G04 Aperture macros list*
%AMRoundRect*
0 Rectangle with rounded corners*
0 $1 Rounding radius*
0 $2 $3 $4 $5 $6 $7 $8 $9 X,Y pos of 4 corners*
0 Add a 4 corners polygon primitive as box body*
4,1,4,$2,$3,$4,$5,$6,$7,$8,$9,$2,$3,0*
0 Add four circle primitives for the rounded corners*
1,1,$1+$1,$2,$3*
1,1,$1+$1,$4,$5*
1,1,$1+$1,$6,$7*
1,1,$1+$1,$8,$9*
0 Add four rect primitives between the rounded corners*
20,1,$1+$1,$2,$3,$4,$5,0*
20,1,$1+$1,$4,$5,$6,$7,0*
20,1,$1+$1,$6,$7,$8,$9,0*
20,1,$1+$1,$8,$9,$2,$3,0*%
G04 Aperture macros list end*
%ADD10RoundRect,0.225000X-0.250000X0.225000X-0.250000X-0.225000X0.250000X-0.225000X0.250000X0.225000X0*%
%ADD11RoundRect,0.375000X0.375000X-0.625000X0.375000X0.625000X-0.375000X0.625000X-0.375000X-0.625000X0*%
%ADD12RoundRect,0.500000X1.400000X-0.500000X1.400000X0.500000X-1.400000X0.500000X-1.400000X-0.500000X0*%
%ADD13RoundRect,0.200000X-0.275000X0.200000X-0.275000X-0.200000X0.275000X-0.200000X0.275000X0.200000X0*%
%ADD14RoundRect,0.250000X0.255000X0.440000X-0.255000X0.440000X-0.255000X-0.440000X0.255000X-0.440000X0*%
%ADD15RoundRect,0.150000X0.825000X0.150000X-0.825000X0.150000X-0.825000X-0.150000X0.825000X-0.150000X0*%
%ADD16RoundRect,0.250000X0.250000X0.475000X-0.250000X0.475000X-0.250000X-0.475000X0.250000X-0.475000X0*%
%ADD17RoundRect,0.200000X0.200000X0.275000X-0.200000X0.275000X-0.200000X-0.275000X0.200000X-0.275000X0*%
%ADD18RoundRect,0.250000X0.250000X0.250000X-0.250000X0.250000X-0.250000X-0.250000X0.250000X-0.250000X0*%
%ADD19RoundRect,0.218750X0.256250X-0.218750X0.256250X0.218750X-0.256250X0.218750X-0.256250X-0.218750X0*%
%ADD20RoundRect,0.250000X-0.250000X-0.250000X0.250000X-0.250000X0.250000X0.250000X-0.250000X0.250000X0*%
%ADD21RoundRect,0.218750X-0.256250X0.218750X-0.256250X-0.218750X0.256250X-0.218750X0.256250X0.218750X0*%
%ADD22RoundRect,0.200000X0.275000X-0.200000X0.275000X0.200000X-0.275000X0.200000X-0.275000X-0.200000X0*%
%ADD23RoundRect,0.225000X0.250000X-0.225000X0.250000X0.225000X-0.250000X0.225000X-0.250000X-0.225000X0*%
%ADD24RoundRect,0.225000X0.225000X0.250000X-0.225000X0.250000X-0.225000X-0.250000X0.225000X-0.250000X0*%
%ADD25RoundRect,0.250000X-0.475000X0.250000X-0.475000X-0.250000X0.475000X-0.250000X0.475000X0.250000X0*%
%ADD26RoundRect,0.175000X0.175000X0.625000X-0.175000X0.625000X-0.175000X-0.625000X0.175000X-0.625000X0*%
%ADD27RoundRect,0.200000X0.200000X0.600000X-0.200000X0.600000X-0.200000X-0.600000X0.200000X-0.600000X0*%
%ADD28RoundRect,0.225000X0.225000X0.575000X-0.225000X0.575000X-0.225000X-0.575000X0.225000X-0.575000X0*%
%ADD29RoundRect,0.225000X-0.225000X-0.250000X0.225000X-0.250000X0.225000X0.250000X-0.225000X0.250000X0*%
G04 APERTURE END LIST*
D10*
X117107500Y-67432500D03*
X117107500Y-68982500D03*
D11*
X89307500Y-64257500D03*
X91607500Y-64257500D03*
D12*
X91607500Y-57957500D03*
D11*
X93907500Y-64257500D03*
D13*
X104947500Y-67417500D03*
X104947500Y-69067500D03*
D14*
X100927500Y-70462500D03*
X100927500Y-68812500D03*
X99727500Y-70462500D03*
X99727500Y-68812500D03*
D15*
X102802500Y-71542500D03*
X102802500Y-70272500D03*
X102802500Y-69002500D03*
X102802500Y-67732500D03*
X97852500Y-67732500D03*
X97852500Y-69002500D03*
X97852500Y-70272500D03*
X97852500Y-71542500D03*
D13*
X117107500Y-70482500D03*
X117107500Y-72132500D03*
D16*
X92587500Y-66617500D03*
X90687500Y-66617500D03*
D17*
X104492500Y-62917500D03*
X102842500Y-62917500D03*
D13*
X104947500Y-70517500D03*
X104947500Y-72167500D03*
D18*
X101257500Y-62907500D03*
X98757500Y-62907500D03*
D17*
X95872500Y-70242500D03*
X94222500Y-70242500D03*
D19*
X121117500Y-64040000D03*
X121117500Y-62465000D03*
D20*
X116157500Y-65507500D03*
X118657500Y-65507500D03*
D21*
X127517500Y-62525000D03*
X127517500Y-64100000D03*
D22*
X104477500Y-61432500D03*
X104477500Y-59782500D03*
D23*
X107887500Y-67572500D03*
X107887500Y-66022500D03*
D22*
X108367500Y-63772500D03*
X108367500Y-62122500D03*
D13*
X124377500Y-59387500D03*
X124377500Y-61037500D03*
D24*
X103052500Y-66042500D03*
X101502500Y-66042500D03*
D19*
X124377500Y-64100000D03*
X124377500Y-62525000D03*
D25*
X86927500Y-60207500D03*
X86927500Y-62107500D03*
D26*
X115047500Y-63117500D03*
D27*
X113027500Y-63117500D03*
D28*
X111797500Y-63117500D03*
D26*
X114047500Y-63117500D03*
D27*
X116067500Y-63117500D03*
D28*
X117297500Y-63117500D03*
D22*
X127517500Y-61037500D03*
X127517500Y-59387500D03*
D29*
X97427500Y-66042500D03*
X98977500Y-66042500D03*
D14*
X113157500Y-70352500D03*
X113157500Y-68702500D03*
X111957500Y-70352500D03*
X111957500Y-68702500D03*
D15*
X115032500Y-71432500D03*
X115032500Y-70162500D03*
X115032500Y-68892500D03*
X115032500Y-67622500D03*
X110082500Y-67622500D03*
X110082500Y-68892500D03*
X110082500Y-70162500D03*
X110082500Y-71432500D03*
D13*
X121117500Y-59377500D03*
X121117500Y-61027500D03*
D22*
X106787500Y-63772500D03*
X106787500Y-62122500D03*
M02*
