G04 #@! TF.GenerationSoftware,KiCad,Pcbnew,9.0.1*
G04 #@! TF.CreationDate,2025-05-19T19:02:10+12:00*
G04 #@! TF.ProjectId,breadbat,62726561-6462-4617-942e-6b696361645f,v1.0.0*
G04 #@! TF.SameCoordinates,Original*
G04 #@! TF.FileFunction,Copper,L2,Bot*
G04 #@! TF.FilePolarity,Positive*
%FSLAX46Y46*%
G04 Gerber Fmt 4.6, Leading zero omitted, Abs format (unit mm)*
G04 Created by KiCad (PCBNEW 9.0.1) date 2025-05-19 19:02:10*
%MOMM*%
%LPD*%
G01*
G04 APERTURE LIST*
G04 Aperture macros list*
%AMRoundRect*
0 Rectangle with rounded corners*
0 $1 Rounding radius*
0 $2 $3 $4 $5 $6 $7 $8 $9 X,Y pos of 4 corners*
0 Add a 4 corners polygon primitive as box body*
4,1,4,$2,$3,$4,$5,$6,$7,$8,$9,$2,$3,0*
0 Add four circle primitives for the rounded corners*
1,1,$1+$1,$2,$3*
1,1,$1+$1,$4,$5*
1,1,$1+$1,$6,$7*
1,1,$1+$1,$8,$9*
0 Add four rect primitives between the rounded corners*
20,1,$1+$1,$2,$3,$4,$5,0*
20,1,$1+$1,$4,$5,$6,$7,0*
20,1,$1+$1,$6,$7,$8,$9,0*
20,1,$1+$1,$8,$9,$2,$3,0*%
G04 Aperture macros list end*
G04 #@! TA.AperFunction,HeatsinkPad*
%ADD10C,0.500000*%
G04 #@! TD*
G04 #@! TA.AperFunction,HeatsinkPad*
%ADD11R,1.900000X2.900000*%
G04 #@! TD*
G04 #@! TA.AperFunction,ComponentPad*
%ADD12O,1.200000X1.750000*%
G04 #@! TD*
G04 #@! TA.AperFunction,ComponentPad*
%ADD13RoundRect,0.250000X-0.350000X-0.625000X0.350000X-0.625000X0.350000X0.625000X-0.350000X0.625000X0*%
G04 #@! TD*
G04 #@! TA.AperFunction,HeatsinkPad*
%ADD14O,1.000000X1.700000*%
G04 #@! TD*
G04 #@! TA.AperFunction,ComponentPad*
%ADD15R,1.700000X1.700000*%
G04 #@! TD*
G04 #@! TA.AperFunction,ComponentPad*
%ADD16C,1.700000*%
G04 #@! TD*
G04 #@! TA.AperFunction,SMDPad,CuDef*
%ADD17C,1.500000*%
G04 #@! TD*
G04 #@! TA.AperFunction,ViaPad*
%ADD18C,0.800000*%
G04 #@! TD*
G04 #@! TA.AperFunction,ViaPad*
%ADD19C,0.600000*%
G04 #@! TD*
G04 #@! TA.AperFunction,Conductor*
%ADD20C,0.150000*%
G04 #@! TD*
G04 APERTURE END LIST*
D10*
X101027500Y-70837500D03*
X101027500Y-69637500D03*
X101027500Y-68437500D03*
D11*
X100327500Y-69637500D03*
D10*
X99627500Y-70837500D03*
X99627500Y-69637500D03*
X99627500Y-68437500D03*
D12*
X101147500Y-58567500D03*
D13*
X99147500Y-58567500D03*
D14*
X118867500Y-62937500D03*
X118867500Y-59137500D03*
X110227500Y-62937500D03*
X110227500Y-59137500D03*
D10*
X113257500Y-70727500D03*
X113257500Y-69527500D03*
X113257500Y-68327500D03*
D11*
X112557500Y-69527500D03*
D10*
X111857500Y-70727500D03*
X111857500Y-69527500D03*
X111857500Y-68327500D03*
D15*
X82877500Y-69237500D03*
D16*
X80337500Y-69237500D03*
X82877500Y-71777500D03*
X80337500Y-71777500D03*
X82877500Y-74317500D03*
X80337500Y-74317500D03*
D15*
X127937500Y-69237500D03*
D16*
X125397500Y-69237500D03*
X127937500Y-71777500D03*
X125397500Y-71777500D03*
X127937500Y-74317500D03*
X125397500Y-74317500D03*
D17*
X90887500Y-70017500D03*
D18*
X88777500Y-66527500D03*
X113127500Y-67227500D03*
D19*
X111977500Y-71727500D03*
X111977500Y-66377500D03*
X108377500Y-61327500D03*
X112727500Y-71727500D03*
D18*
X111977500Y-67227500D03*
X111797500Y-61837500D03*
X100237500Y-66037500D03*
D19*
X123577500Y-59327500D03*
X93477500Y-70227500D03*
D18*
X101007500Y-71737500D03*
X99727500Y-71747500D03*
D19*
X101077500Y-67427500D03*
X100277500Y-67427500D03*
X105277500Y-59727500D03*
D18*
X87377500Y-63527500D03*
D19*
X113477500Y-71727500D03*
X113127500Y-66377500D03*
D18*
X119627500Y-65477500D03*
X107057500Y-65537500D03*
X87377500Y-64927500D03*
X97777500Y-62927500D03*
X87377500Y-66527500D03*
D19*
X106777500Y-61327500D03*
X99527500Y-67427500D03*
D18*
X117297500Y-61827500D03*
D19*
X126677500Y-59227500D03*
X106277500Y-68077500D03*
X106287500Y-66537500D03*
D20*
X106287500Y-66537500D02*
X106277500Y-66547500D01*
X106277500Y-66547500D02*
X106277500Y-68077500D01*
G04 #@! TA.AperFunction,Conductor*
G36*
X128713561Y-56628597D02*
G01*
X128723551Y-56629580D01*
X128851324Y-56642165D01*
X128875152Y-56646904D01*
X129001777Y-56685315D01*
X129024225Y-56694614D01*
X129140906Y-56756982D01*
X129161116Y-56770486D01*
X129263391Y-56854420D01*
X129280579Y-56871608D01*
X129364512Y-56973881D01*
X129378017Y-56994093D01*
X129440383Y-57110771D01*
X129449686Y-57133228D01*
X129488093Y-57259838D01*
X129492835Y-57283680D01*
X129506403Y-57421438D01*
X129507000Y-57433592D01*
X129507000Y-75081407D01*
X129506403Y-75093560D01*
X129506403Y-75093561D01*
X129492835Y-75231319D01*
X129488093Y-75255161D01*
X129449686Y-75381771D01*
X129440383Y-75404228D01*
X129378017Y-75520906D01*
X129364512Y-75541118D01*
X129280579Y-75643391D01*
X129263391Y-75660579D01*
X129161118Y-75744512D01*
X129140906Y-75758017D01*
X129024228Y-75820383D01*
X129001771Y-75829686D01*
X128875161Y-75868093D01*
X128851319Y-75872835D01*
X128713562Y-75886403D01*
X128701408Y-75887000D01*
X79563592Y-75887000D01*
X79551438Y-75886403D01*
X79413680Y-75872835D01*
X79389840Y-75868093D01*
X79263228Y-75829686D01*
X79240771Y-75820383D01*
X79124093Y-75758017D01*
X79103881Y-75744512D01*
X79001608Y-75660579D01*
X78984420Y-75643391D01*
X78900486Y-75541116D01*
X78886982Y-75520906D01*
X78824614Y-75404225D01*
X78815315Y-75381777D01*
X78776904Y-75255152D01*
X78772165Y-75231324D01*
X78758597Y-75093560D01*
X78758000Y-75081407D01*
X78758000Y-69139077D01*
X79087000Y-69139077D01*
X79087000Y-69335922D01*
X79117790Y-69530326D01*
X79178617Y-69717529D01*
X79267976Y-69892905D01*
X79383672Y-70052146D01*
X79522854Y-70191328D01*
X79682095Y-70307024D01*
X79805492Y-70369897D01*
X79858713Y-70397015D01*
X79909509Y-70444989D01*
X79926304Y-70512810D01*
X79903767Y-70578945D01*
X79858713Y-70617985D01*
X79682094Y-70707976D01*
X79591241Y-70773985D01*
X79522854Y-70823672D01*
X79522852Y-70823674D01*
X79522851Y-70823674D01*
X79383674Y-70962851D01*
X79383674Y-70962852D01*
X79383672Y-70962854D01*
X79333985Y-71031241D01*
X79267976Y-71122094D01*
X79178617Y-71297470D01*
X79117790Y-71484673D01*
X79087000Y-71679077D01*
X79087000Y-71875922D01*
X79117790Y-72070326D01*
X79178617Y-72257529D01*
X79267976Y-72432905D01*
X79383672Y-72592146D01*
X79522854Y-72731328D01*
X79682095Y-72847024D01*
X79805492Y-72909897D01*
X79858713Y-72937015D01*
X79909509Y-72984989D01*
X79926304Y-73052810D01*
X79903767Y-73118945D01*
X79858713Y-73157985D01*
X79682094Y-73247976D01*
X79591241Y-73313985D01*
X79522854Y-73363672D01*
X79522852Y-73363674D01*
X79522851Y-73363674D01*
X79383674Y-73502851D01*
X79383674Y-73502852D01*
X79383672Y-73502854D01*
X79333985Y-73571241D01*
X79267976Y-73662094D01*
X79178617Y-73837470D01*
X79117790Y-74024673D01*
X79087000Y-74219077D01*
X79087000Y-74415922D01*
X79117790Y-74610326D01*
X79178617Y-74797529D01*
X79267976Y-74972905D01*
X79383672Y-75132146D01*
X79522854Y-75271328D01*
X79682095Y-75387024D01*
X79764955Y-75429243D01*
X79857470Y-75476382D01*
X79857472Y-75476382D01*
X79857475Y-75476384D01*
X79957817Y-75508987D01*
X80044673Y-75537209D01*
X80239078Y-75568000D01*
X80239083Y-75568000D01*
X80435922Y-75568000D01*
X80630326Y-75537209D01*
X80817525Y-75476384D01*
X80992905Y-75387024D01*
X81152146Y-75271328D01*
X81291328Y-75132146D01*
X81407024Y-74972905D01*
X81496384Y-74797525D01*
X81557209Y-74610326D01*
X81588000Y-74415922D01*
X81588000Y-74219077D01*
X81557209Y-74024673D01*
X81496382Y-73837470D01*
X81407023Y-73662094D01*
X81291328Y-73502854D01*
X81152146Y-73363672D01*
X81072525Y-73305824D01*
X80992903Y-73247974D01*
X80816287Y-73157985D01*
X80765490Y-73110011D01*
X80748695Y-73042190D01*
X80771232Y-72976055D01*
X80816287Y-72937015D01*
X80992903Y-72847025D01*
X80992902Y-72847025D01*
X80992905Y-72847024D01*
X81152146Y-72731328D01*
X81291328Y-72592146D01*
X81407024Y-72432905D01*
X81496384Y-72257525D01*
X81557209Y-72070326D01*
X81588000Y-71875922D01*
X81588000Y-71679077D01*
X81557209Y-71484673D01*
X81496382Y-71297470D01*
X81407023Y-71122094D01*
X81291328Y-70962854D01*
X81152146Y-70823672D01*
X81072525Y-70765824D01*
X80992903Y-70707974D01*
X80816287Y-70617985D01*
X80765490Y-70570011D01*
X80748695Y-70502190D01*
X80771232Y-70436055D01*
X80816287Y-70397015D01*
X80992903Y-70307025D01*
X80992902Y-70307025D01*
X80992905Y-70307024D01*
X81152146Y-70191328D01*
X81291328Y-70052146D01*
X81407024Y-69892905D01*
X81496384Y-69717525D01*
X81557209Y-69530326D01*
X81588000Y-69335922D01*
X81588000Y-69139077D01*
X124147000Y-69139077D01*
X124147000Y-69335922D01*
X124177790Y-69530326D01*
X124238617Y-69717529D01*
X124327976Y-69892905D01*
X124443672Y-70052146D01*
X124582854Y-70191328D01*
X124742095Y-70307024D01*
X124865492Y-70369897D01*
X124918713Y-70397015D01*
X124969509Y-70444989D01*
X124986304Y-70512810D01*
X124963767Y-70578945D01*
X124918713Y-70617985D01*
X124742094Y-70707976D01*
X124651241Y-70773985D01*
X124582854Y-70823672D01*
X124582852Y-70823674D01*
X124582851Y-70823674D01*
X124443674Y-70962851D01*
X124443674Y-70962852D01*
X124443672Y-70962854D01*
X124393985Y-71031241D01*
X124327976Y-71122094D01*
X124238617Y-71297470D01*
X124177790Y-71484673D01*
X124147000Y-71679077D01*
X124147000Y-71875922D01*
X124177790Y-72070326D01*
X124238617Y-72257529D01*
X124327976Y-72432905D01*
X124443672Y-72592146D01*
X124582854Y-72731328D01*
X124742095Y-72847024D01*
X124865492Y-72909897D01*
X124918713Y-72937015D01*
X124969509Y-72984989D01*
X124986304Y-73052810D01*
X124963767Y-73118945D01*
X124918713Y-73157985D01*
X124742094Y-73247976D01*
X124651241Y-73313985D01*
X124582854Y-73363672D01*
X124582852Y-73363674D01*
X124582851Y-73363674D01*
X124443674Y-73502851D01*
X124443674Y-73502852D01*
X124443672Y-73502854D01*
X124393985Y-73571241D01*
X124327976Y-73662094D01*
X124238617Y-73837470D01*
X124177790Y-74024673D01*
X124147000Y-74219077D01*
X124147000Y-74415922D01*
X124177790Y-74610326D01*
X124238617Y-74797529D01*
X124327976Y-74972905D01*
X124443672Y-75132146D01*
X124582854Y-75271328D01*
X124742095Y-75387024D01*
X124824955Y-75429243D01*
X124917470Y-75476382D01*
X124917472Y-75476382D01*
X124917475Y-75476384D01*
X125017817Y-75508987D01*
X125104673Y-75537209D01*
X125299078Y-75568000D01*
X125299083Y-75568000D01*
X125495922Y-75568000D01*
X125690326Y-75537209D01*
X125877525Y-75476384D01*
X126052905Y-75387024D01*
X126212146Y-75271328D01*
X126351328Y-75132146D01*
X126467024Y-74972905D01*
X126556384Y-74797525D01*
X126617209Y-74610326D01*
X126648000Y-74415922D01*
X126648000Y-74219077D01*
X126617209Y-74024673D01*
X126556382Y-73837470D01*
X126467023Y-73662094D01*
X126351328Y-73502854D01*
X126212146Y-73363672D01*
X126132525Y-73305824D01*
X126052903Y-73247974D01*
X125876287Y-73157985D01*
X125825490Y-73110011D01*
X125808695Y-73042190D01*
X125831232Y-72976055D01*
X125876287Y-72937015D01*
X126052903Y-72847025D01*
X126052902Y-72847025D01*
X126052905Y-72847024D01*
X126212146Y-72731328D01*
X126351328Y-72592146D01*
X126467024Y-72432905D01*
X126556384Y-72257525D01*
X126617209Y-72070326D01*
X126648000Y-71875922D01*
X126648000Y-71679077D01*
X126617209Y-71484673D01*
X126556382Y-71297470D01*
X126467023Y-71122094D01*
X126351328Y-70962854D01*
X126212146Y-70823672D01*
X126132525Y-70765824D01*
X126052903Y-70707974D01*
X125876287Y-70617985D01*
X125825490Y-70570011D01*
X125808695Y-70502190D01*
X125831232Y-70436055D01*
X125876287Y-70397015D01*
X126052903Y-70307025D01*
X126052902Y-70307025D01*
X126052905Y-70307024D01*
X126212146Y-70191328D01*
X126351328Y-70052146D01*
X126467024Y-69892905D01*
X126556384Y-69717525D01*
X126617209Y-69530326D01*
X126648000Y-69335922D01*
X126648000Y-69139077D01*
X126617209Y-68944673D01*
X126556382Y-68757470D01*
X126467023Y-68582094D01*
X126351328Y-68422854D01*
X126212146Y-68283672D01*
X126052905Y-68167976D01*
X126010742Y-68146493D01*
X125877529Y-68078617D01*
X125690326Y-68017790D01*
X125495922Y-67987000D01*
X125495917Y-67987000D01*
X125299083Y-67987000D01*
X125299078Y-67987000D01*
X125104673Y-68017790D01*
X124917470Y-68078617D01*
X124742094Y-68167976D01*
X124651241Y-68233985D01*
X124582854Y-68283672D01*
X124582852Y-68283674D01*
X124582851Y-68283674D01*
X124443674Y-68422851D01*
X124443674Y-68422852D01*
X124443672Y-68422854D01*
X124393985Y-68491241D01*
X124327976Y-68582094D01*
X124238617Y-68757470D01*
X124177790Y-68944673D01*
X124147000Y-69139077D01*
X81588000Y-69139077D01*
X81557209Y-68944673D01*
X81496382Y-68757470D01*
X81407023Y-68582094D01*
X81291328Y-68422854D01*
X81152146Y-68283672D01*
X80992905Y-68167976D01*
X80950746Y-68146495D01*
X105576999Y-68146495D01*
X105603918Y-68281822D01*
X105603921Y-68281832D01*
X105656721Y-68409304D01*
X105656728Y-68409317D01*
X105733385Y-68524041D01*
X105733388Y-68524045D01*
X105830954Y-68621611D01*
X105830958Y-68621614D01*
X105945682Y-68698271D01*
X105945695Y-68698278D01*
X106073167Y-68751078D01*
X106073172Y-68751080D01*
X106073176Y-68751080D01*
X106073177Y-68751081D01*
X106208504Y-68778000D01*
X106208507Y-68778000D01*
X106346495Y-68778000D01*
X106449678Y-68757475D01*
X106481828Y-68751080D01*
X106609311Y-68698275D01*
X106724042Y-68621614D01*
X106821614Y-68524042D01*
X106898275Y-68409311D01*
X106951080Y-68281828D01*
X106978000Y-68146493D01*
X106978000Y-68008507D01*
X106978000Y-68008504D01*
X106951081Y-67873177D01*
X106951080Y-67873176D01*
X106951080Y-67873172D01*
X106951078Y-67873167D01*
X106898278Y-67745695D01*
X106898271Y-67745682D01*
X106821614Y-67630958D01*
X106821611Y-67630954D01*
X106789319Y-67598662D01*
X106755834Y-67537339D01*
X106753000Y-67510981D01*
X106753000Y-67114018D01*
X106772685Y-67046979D01*
X106789320Y-67026336D01*
X106831611Y-66984045D01*
X106831614Y-66984042D01*
X106908275Y-66869311D01*
X106961080Y-66741828D01*
X106988000Y-66606493D01*
X106988000Y-66468507D01*
X106988000Y-66468504D01*
X106961081Y-66333177D01*
X106961080Y-66333176D01*
X106961080Y-66333172D01*
X106961078Y-66333167D01*
X106908278Y-66205695D01*
X106908271Y-66205682D01*
X106831614Y-66090958D01*
X106831611Y-66090954D01*
X106734045Y-65993388D01*
X106734041Y-65993385D01*
X106619317Y-65916728D01*
X106619304Y-65916721D01*
X106491832Y-65863921D01*
X106491822Y-65863918D01*
X106356495Y-65837000D01*
X106356493Y-65837000D01*
X106218507Y-65837000D01*
X106218505Y-65837000D01*
X106083177Y-65863918D01*
X106083167Y-65863921D01*
X105955695Y-65916721D01*
X105955682Y-65916728D01*
X105840958Y-65993385D01*
X105840954Y-65993388D01*
X105743388Y-66090954D01*
X105743385Y-66090958D01*
X105666728Y-66205682D01*
X105666721Y-66205695D01*
X105613921Y-66333167D01*
X105613918Y-66333177D01*
X105587000Y-66468504D01*
X105587000Y-66468507D01*
X105587000Y-66606493D01*
X105587000Y-66606495D01*
X105586999Y-66606495D01*
X105613918Y-66741822D01*
X105613921Y-66741832D01*
X105666721Y-66869304D01*
X105666728Y-66869317D01*
X105743384Y-66984040D01*
X105743385Y-66984041D01*
X105743386Y-66984042D01*
X105765681Y-67006337D01*
X105799166Y-67067658D01*
X105802000Y-67094018D01*
X105802000Y-67510981D01*
X105782315Y-67578020D01*
X105765681Y-67598662D01*
X105733388Y-67630954D01*
X105733385Y-67630958D01*
X105656728Y-67745682D01*
X105656721Y-67745695D01*
X105603921Y-67873167D01*
X105603918Y-67873177D01*
X105577000Y-68008504D01*
X105577000Y-68008507D01*
X105577000Y-68146493D01*
X105577000Y-68146495D01*
X105576999Y-68146495D01*
X80950746Y-68146495D01*
X80884812Y-68112900D01*
X80884810Y-68112898D01*
X80817532Y-68078618D01*
X80630326Y-68017790D01*
X80435922Y-67987000D01*
X80435917Y-67987000D01*
X80239083Y-67987000D01*
X80239078Y-67987000D01*
X80044673Y-68017790D01*
X79857470Y-68078617D01*
X79682094Y-68167976D01*
X79591241Y-68233985D01*
X79522854Y-68283672D01*
X79522852Y-68283674D01*
X79522851Y-68283674D01*
X79383674Y-68422851D01*
X79383674Y-68422852D01*
X79383672Y-68422854D01*
X79333985Y-68491241D01*
X79267976Y-68582094D01*
X79178617Y-68757470D01*
X79117790Y-68944673D01*
X79087000Y-69139077D01*
X78758000Y-69139077D01*
X78758000Y-58941043D01*
X100146999Y-58941043D01*
X100185447Y-59134329D01*
X100185450Y-59134339D01*
X100260864Y-59316407D01*
X100260871Y-59316420D01*
X100370360Y-59480281D01*
X100370363Y-59480285D01*
X100509714Y-59619636D01*
X100509718Y-59619639D01*
X100673579Y-59729128D01*
X100673592Y-59729135D01*
X100855660Y-59804549D01*
X100855665Y-59804551D01*
X100855669Y-59804551D01*
X100855670Y-59804552D01*
X101048956Y-59843000D01*
X101048959Y-59843000D01*
X101246043Y-59843000D01*
X101376082Y-59817132D01*
X101439335Y-59804551D01*
X101621414Y-59729132D01*
X101785282Y-59619639D01*
X101924639Y-59480282D01*
X102034132Y-59316414D01*
X102109551Y-59134335D01*
X102148000Y-58941041D01*
X102148000Y-58193959D01*
X102148000Y-58193956D01*
X102109552Y-58000670D01*
X102109551Y-58000669D01*
X102109551Y-58000665D01*
X102109549Y-58000660D01*
X102034135Y-57818592D01*
X102034128Y-57818579D01*
X101924639Y-57654718D01*
X101924636Y-57654714D01*
X101785285Y-57515363D01*
X101785281Y-57515360D01*
X101621420Y-57405871D01*
X101621407Y-57405864D01*
X101439339Y-57330450D01*
X101439329Y-57330447D01*
X101246043Y-57292000D01*
X101246041Y-57292000D01*
X101048959Y-57292000D01*
X101048957Y-57292000D01*
X100855670Y-57330447D01*
X100855660Y-57330450D01*
X100673592Y-57405864D01*
X100673579Y-57405871D01*
X100509718Y-57515360D01*
X100509714Y-57515363D01*
X100370363Y-57654714D01*
X100370360Y-57654718D01*
X100260871Y-57818579D01*
X100260864Y-57818592D01*
X100185450Y-58000660D01*
X100185447Y-58000670D01*
X100147000Y-58193956D01*
X100147000Y-58193959D01*
X100147000Y-58941041D01*
X100147000Y-58941043D01*
X100146999Y-58941043D01*
X78758000Y-58941043D01*
X78758000Y-57433592D01*
X78758597Y-57421439D01*
X78760130Y-57405871D01*
X78772165Y-57283671D01*
X78776903Y-57259849D01*
X78815316Y-57133219D01*
X78824613Y-57110778D01*
X78886985Y-56994087D01*
X78900482Y-56973887D01*
X78984424Y-56871603D01*
X79001603Y-56854424D01*
X79103887Y-56770482D01*
X79124087Y-56756985D01*
X79240778Y-56694613D01*
X79263219Y-56685316D01*
X79389849Y-56646903D01*
X79413673Y-56642165D01*
X79542670Y-56629460D01*
X79551439Y-56628597D01*
X79563592Y-56628000D01*
X79597382Y-56628000D01*
X128667618Y-56628000D01*
X128701408Y-56628000D01*
X128713561Y-56628597D01*
G37*
G04 #@! TD.AperFunction*
M02*
